<svg width="500" height="463" viewBox="0 0 500 463" fill="none" xmlns="http://www.w3.org/2000/svg">
<path d="M7.36515 14.1075C15.2213 30.8276 152.704 284.241 155.159 286.331C157.123 288.421 182.165 241.918 182.165 236.171C182.165 230.946 67.2683 17.765 58.4302 6.27002C55.4841 2.61251 42.2268 0 27.0055 0H0L7.36515 14.1075Z" fill="#4F46E5"/>
<path d="M104.094 11.4949C109.986 24.0349 202.296 194.893 204.26 197.505C206.224 200.118 231.265 150.48 230.774 144.21C230.774 141.075 213.589 107.635 192.966 70.5376L155.159 2.61237L126.68 1.04487C98.2015 -0.522638 98.2015 -0.522638 104.094 11.4949Z" fill="#4F46E5"/>
<path d="M317.684 65.3124C300.007 98.23 285.277 127.49 285.277 130.625C285.277 134.283 294.606 135.85 310.809 134.805L336.833 133.238L355 99.7975C364.82 81.51 375.623 63.7449 378.569 60.6099C385.443 53.2949 418.832 52.2499 416.868 60.0874C415.885 63.2224 403.119 88.3025 388.389 116.518L361.383 167.2H261.708L219.482 246.62L177.255 325.518L214.571 395.533C235.194 434.198 253.361 463.981 254.834 462.936C255.816 461.368 281.349 415.911 310.809 362.093L363.838 263.863L338.797 262.295C324.558 261.25 311.3 262.818 308.845 265.43C305.899 268.565 293.624 289.988 280.367 314.023C267.6 338.058 255.325 357.391 253.361 356.868C251.397 356.868 245.505 349.553 240.595 341.193L232.248 326.563L260.235 274.313L288.714 222.063L389.862 216.838L443.382 117.563C473.334 62.6999 498.375 15.1523 499.848 11.4948C501.812 6.79228 485.118 5.22477 426.197 5.22477H350.581L317.684 65.3124Z" fill="#4F46E5"/>
</svg>
